<svg xmlns="http://www.w3.org/2000/svg" width="3871" height="2367" viewBox="0 0 3871 2367"><g fill="none" fill-rule="evenodd"><path fill="#6EE8FF" d="M0 0h3871v2367H0z"/><path fill="#FFF" d="m0 1183 906.357 658.507-346.198 1065.486H-560.159l-346.198-1065.486zM3871-722l906.357 658.507-346.198 1065.486H3310.841L2964.643-63.493z"/><path fill="#FF5678" d="M2224.948 1425.075c-4.236 62.124-88.546 94.424-139.683 107.68 10.25-60.947 23.487-124.126 15.252-185.933-2.711-20.358-6.27-40.61-10.09-60.786a1736.379 1736.379 0 0 0-4.382-22.356c-.365-1.81-3.332-9.731-2.386-11.535 1.69-3.228 15.991-2.722 19.638-2.582 9.39.36 18.607 2.735 27.201 6.488 18.061 7.885 33.277 21.46 45.813 36.443 29.569 35.334 51.832 85.735 48.637 132.58m-97.61-422.303c-48.944 28.978-107.9 44.531-163.724 52.111-85.043 11.548-171.875-1.746-255.018-20.167-20.414-4.524-40.785-9.398-60.898-15.12-.907 58.914 15.67 114.94 48.045 164.074 26.767 40.621 61.698 74.572 92.23 112.199 28.423 35.028 51.348 74.54 52.486 120.773.475 19.294-1.112 36.95-17.268 49.45-16.236 12.567-38.165 17.227-58.033 20.09-49.748 7.167-101.852 3.294-151.288-4.598-9.599-1.534-19.178-3.278-28.652-5.459-10.756-2.476-14.525-5.394-23.51 2.68-19.385 17.42-28.277 43.548-32.668 68.542-8.229 46.81-5.44 101.417 6.424 147.602 11.427 44.488 65.361 69.143 105.316 79.896 120.515 32.431 253.482-12.356 345.956-92.083a222.2 222.2 0 0 0 5.966-5.313c6.57 13.675 13.742 27.11 21.581 40.098 5.454 9.038 11.193 18.118 18.07 26.161 2.483 2.904 5.4 6.826 8.793 8.73 6.32 3.538 12.746.937 19.9-.306 52.78-9.164 105.438-21.214 155.626-40.194 76.295-28.852 144.723-76.384 180.885-151.467 18.269-37.927 27.793-79.481 32.402-121.154 5.29-47.85 6.434-96.762-7.033-143.4-24.676-85.466-87.637-154.753-156.585-208.19-42.663-33.068-89.564-62.95-139.003-84.955"/><g fill="#000"><path d="M2989.744 436.821c-11.154 4.433-23.164 5.666-35.032 6.533-9.309.679-16.616 4.411-25.386 4.621-24.425.583-48.952 1.68-73.257 5.329-24.41 3.668-46.895-1.12-66.17 17.218-6.86 6.526-15.46 14.029-11.337 24.561 1.89 4.825 4.555 8.284 6.126 13.462 1.778 5.855 3.985 11.384 6.553 16.956 4.928 10.69 29.603 50.5 9.579 55.37-21.71 5.279-51.15-.89-72.062-6.929-12.201-3.524-24.21-7.653-36.234-11.723-9.52-3.22-22.027-5.046-30.8-10.093-5.817-3.347-7.022-9.06-10.869-14.49-6.994-9.875-13.53-18.286-22.57-26.503-18.752-17.041-42.196-28.613-65.315-38.785-1.492-.66-4.217-2.199-5.828-2.35-1.74-.162-3.656 1.63-4.78 1.413-3.083-.6-4.157-2.538-7.531-4.454-4.534-2.573-23.012-11.135-26.243-4.404 3.023-8.843 5.23-6.291 13.416-5.008 3.603.569 6.016-1.082 9.254-.917 2.986.15 4.21 1.849 6.704 2.308 4.567.838 8.822.208 13.59.172 1.282-2.827 3.1-2.805 5.453.062 1.315.425 2.63.85 3.945 1.278 4.748 1.302 9.824 1.054 14.685 1.436 7.303.579 26.332 9.482 29.995.471 3.906-9.622-7.961-12.021-9.94-18.736-1.93-6.587 7.112-10.453 10.74-14.432 4.132-4.523 6.657-8.494 11.506-12.48 2.842-2.34 6.565-4.52 8.672-7.637 1.938-2.867 1.852-7.502 4.367-9.892 2.998-2.848 3.458-.877 6.183-2.253 5.344-2.703 2.983-2.566 6.145-6.26 2.702-3.16 4.697-3.064 8.233-5.484 5.176-3.544 6.997-10.468 12.028-14.277 3.68-2.789 9.54-2.784 12.77-5.68 1.901-1.706 1.314-4.47 2.958-6.081 3.158-3.094 5.32-1.838 9.26-2.858 6.646-1.72 8.796-5.393 13.688-9.646 4.47-3.883 7.307-3.866 12.903-5.477 7.641-2.198 12.578-7.956 19.475-11.34 6.493-3.183 13.2-5.414 19.769-8.805 4.744-2.45 9.314-3.969 13.643-6.468 1.463-.844 1.59-3.933 3.477-4.351 2.167-.483 3.899 3.118 6.204 3.307 4.83.396 10.329-4.96 13.5-8.062 1.38-1.348 3.243-4.992 5.019-5.745 3.71-1.577 5.923 1.546 9.23.313 4.642-1.73 2.797-6.795 5.641-9.588 2.487-2.438 7.768-2.273 12.185-1.501 17.793 3.101-9.898 15.67-15.105 18.212-8.758 4.282-72.487 35.431-57.577 50.965 7.887 8.217 27.145 2.038 35.72-.127 15.034-3.797 30.703-11.106 46.121-12.783 1.907-.208 7.594 1.156 9.145.561 3.503-1.34 2.63-4.021 5.477-5.431 4.288-2.117 13.046-2.014 17.399-1.539 3.403.373 7.128 2.404 10.588 2.13 3.813-.304 7.496-2.522 11.276-3.236 6.469-1.219 13.165-.621 19.701-.433 9.396.275 28.181 1.694 14.529 14.177-11.05 10.102-30.164 14.475-44.103 18.884-20.618 6.516-40.874 12.444-61.227 19.868-13.87 5.056-43.454 13.938-26.942 32.89 1.63-1.538 3.26-3.075 4.885-4.613 1.928 1.947 3.916 5.737 7.001 5.847 2.566.09 1.623-2.667 4.048-3.53 7.629-2.705 18.081-2.499 26.123-3.008 20.146-1.276 40.218-3.945 60.39-4.772 18.998-.779 38.196.234 56.822 4.218 4.792 1.025 49.46 12.755 32.187 19.62m-164.738 194.89c1.011 8.462-2.742 15.305-3.785 23.477-1.26 9.88-.337 18.583-3.138 28.406-5.446 19.094-9.317 38.627-15.161 57.61-10.319 33.516-26.978 63.116-44.11 93.527-8.739 15.505-21.9 28.308-33.927 41.277-12.323 13.29-22.172 26.373-36.905 37.285-29.443 21.811-61.215 41.211-96.07 52.993-36.486 12.337-74.854 16.074-113.177 14.504-17.008-.695-35.035 1.028-51.773-1.722-17.797-2.927-37.081-6.521-54.574-10.841-32.108-7.926-63.043-21.381-94.4-33.398-35.02-13.421-66.546-30.553-98.48-49.908-8.449-5.12-17.378-7.512-25.301-13.71-6.68-5.221-13.252-10.215-20.275-14.985-8.063-5.472-15.781-11.455-24.016-16.654-4.923-3.109-11.846-6.15-14.43-11.778-3.554-7.74.73-17.46 2.944-24.967 2.885-9.773 5.952-19.424 9.42-29.003 5.867-16.22 20.803-41.24 12.59-58.389-17.32 10.731-24.96 31.82-32.362 49.751-8.844 21.419-15.018 42.788-16.35 66.018-2.679 46.733 5.141 95.92 22.099 139.493 2.52 6.471 6.944 13.489 3.691 20.411-3.412 7.264-12.674 13.4-19.795 16.54-22.522 9.935-45.133 12.829-68.656 18.322-6.405 1.496-13.416 5.988-19.425 6.554-4.057.383-7.41-.948-12.056-.917-4.665.033-8.314 2.645-12.49 2.924-3.644.246-6.88-1.885-10.354-1.684-7.778.451-9.212 13.78-13.066 2.048-.7.482-4.56 4.857-5.045 4.857-1.1.005-3.038-3.259-4.088-3.84-2.045-1.132-4.736-1.197-7.023-1.493-5.042-.655-10.48-.722-15.447.435-9.209 2.146-18.47 1.242-26.345 1.087-1.79-.036-3.06 1.408-5.288 1.322-1.015-.041-2.475-1.836-3.551-2.113-6.226-1.605-12.689-.406-19.03-.757-14.897-.822-29.285-1.219-43.832-4.511-29.816-6.75-60.213-8.103-90.146-14.275-15.251-3.145-30.15-4.863-45.164-9.006-5.276-1.457-10.686-2.146-15.361-4.134-4.465-1.9-2.709-4.43-9.639.653-3.114-7.63-3.482-6.853-10.996-9.376-2.907-.978-9.586-3.403-11.75-5.324-.216-.191-4.843-11.806-5.241-13.233-1.926-6.936-.32-14.867.484-21.849 1.814-15.74 4.441-31.354 4.596-47.218.067-6.998 1.33-7.2 3.508-12.473.67-1.634 2.652-1.505 2.816-3.995.222-3.316-3.171-5.625-2.806-9.5.489-5.212 5.722-10.492 7.56-15.35 2.207-5.85 2.179-12.033 3.498-18.088 1.761-8.053 5.167-15.613 6.885-23.699 1.46-6.85 1.599-12.298 5.248-18.174 3.648-5.866 2.575-10.657 5.481-16.499 2.668-5.357 6.042-7.28 7.868-13.751 4.422-15.651 11.144-31.149 20.664-44.417 8.373 33.273 17.282 67.647 40.6 93.948 9.602 10.829 22.001 21.756 36.482 25.053 16.373 3.73 29.467-5.926 40.13-17.364 25.402-27.259 35.924-57.684 37.458-94.644.382-9.185.327-18.386.203-27.579-.057-4.09-2.155-14.59.65-18.028 3.073-3.77 11.843-1.414 16.408-3.902 5.613-3.06 11.781-11.25 9.276-18.002 14.96 6.774 29.264 15.69 45.902 17.577 6.586.748 13.6-.39 19.492-.705-.177.01 4.56.975 4.844 1.04 1.167-1.348 2.432-1.676 3.792-.983 1.21.127 2.09.777 2.644 1.95 23.713 2.368 47.591-9.347 67.888-21.758 11.86-7.252 24.885-17.988 28.214-32.105 1.188-5.037.16-9.782 5.37-12.353 4.23-2.091 12.399.924 16.864 1.252 15.707 1.152 31.185-.34 46.52 4.341 9.357 2.856 25.691 22.872 32.218 8.791 2.83 2.657 1.294 7.388 4.307 9.974 2.628 2.253 11.46 3.84 15.092 5.768 5.627 2.984 8.927 6.956 13.853 10.542 6.052 4.409 12.388 4.748 18.246 9.921 20.291 17.916 44.062 30.893 66.718 45.75 26.883 17.628 50.673 38.404 79.517 52.781 29.503 14.7 58.048 26.982 90.286 34.63 14.624 3.47 29.62 6.366 44.632 7.436 7.08.502 13.837.249 20.666 2.373 4.148 1.29 5.489 1.936 9.565 2.055 2.374.07 5.81-1.302 8.736-1.25 6.007.11 9.076-.138 14.498 1.85 6.133 2.246 11.232 3.598 18.217 3.792 8.035.224 12.765-2.86 20.065-4.762 5.882-1.534 11.18-.803 16.444-3.988 23.399-14.153 42.201-35.766 54.472-60.303 14.09-28.16 24.942-62.486 27.15-94.043 1.264-18.065-2.72-35.68-9.62-52.262-1.947-4.679-13.628-24.605-10.03-28.225 4.083-4.112 17.442 5.315 21.208 7.362 11.949 6.492 33.529 8.574 41.905 19.496 2.13-4.093 13.993 1.974 17.8 3.682 3.147 1.412 4.04 3.966 7.999 4.272 3.732.287 7.584-2.688 11.013-3.636-2.506 6.991 5.92 7.318 11.696 7.689 4.157.267 8.626-.387 12.33-.65 7.088-.504 7.202-2.096 13.676-5.728-.253 2.66.036 5.257.862 7.795 4.16-6.024 12.099-1.84 17.719-4.488-4.062-6.164 13.285-7.851 17.325-6.556 10.168 3.266 3.274 16.236 4.174 23.732M2028.72 1055.4c6.708-2 13.461-3.83 20.19-5.741-5.097 4.678-10.392 13.12-17.673 14.437-8.782 1.584-12.24-5.8-2.517-8.696m-331.275 3.35c11.297 1.353 23.6.318 33.5 6.987-4.825 5.55-7.958 11.362-16.01 8.18-6.763-2.675-12.33-10.297-17.49-15.167m377.413 303.94c-7.417-6.652-6.441-9.627-2.957-18.239 1.499-3.703 3.87-15.215 9.498-11.842 1.997 1.195 4.417 13.74 4.775 16.284.797 5.683-2.718 21.508-11.316 13.797m41.835-38.628c-2.62-9.63-2.53-20.114-5.104-29.978-2.718-10.418-6.062-20.869-7.023-31.636 39.194 6.922 61.454 45.818 78.43 78.276 9.02 17.245 17.865 36.32 21.268 55.6 3.32 18.788-2.441 33.053-9.133 49.798-3.41 8.547-9.049 11.513-15.63 17.161-5.833 5.004-8.019 13.448-14.095 17.945-4.488 3.321-10.325 5.047-15.02 8.401-4.639 3.312-9.278 6.598-14.065 9.692-5.474 3.536-21.873 16.427-29.261 13.677-5.532-2.06-3.067-8.826-1.673-13.07 2.933-8.944 4.994-17.558 6.806-26.881 4.837-24.88 7.457-49.603 8.71-74.91 1.224-24.709 2.365-49.953-4.21-74.075m-32.779 112.216c.587 1.223 3.036 11.668-2.427 9.522-3.797-1.494 1.871-7.603 2.427-9.522m23.09-414.688c4.628-1.912 6.477 3.742 10.546 3.911 5.398.223 6.532-5.78 12.197-5.957 13.85-.434 33.92 12.949 45.181 19.933-5.515 6.97-7.789 14.1-5.047 22.683 2.417 7.56 11.645 16.014 11.307 24.026-.346 8.033-10.333 13.206-13.448 20.353-2.86 6.566-3.954 19.694 4.883 22.588 15.196 4.98 18.673-23.484 30.19-23.704 4.923-.093 11.32 9.164 14.862 12.046 7.93 6.454 16.874 11.168 26.095 15.455 6.226 2.89 14.894 8.59 19.509.817 3.699-6.227.678-16.093-2.919-21.45-4.123-6.146-41.086-34.277-38.752-36.755 1.243-1.321 10.448 2.323 11.753 3.43 2.945 2.494 4.028 6.553 6.982 9.21 4.508 4.055 10.333 5.661 15.908 7.537 11.634 3.909 18.998 17.66 30.274 24.064 6.505 3.694 10.476 10.783 15.979 16.277 7.202 7.19 14.542 14.723 13.459 25.311-.752 7.336-1.842 24.425-5.99 30.614-4.505 6.719-11.999 4.143-18.843 5.73-7.698 1.784-13.857 7.792-12.325 16.372 1.591 8.92 8.727 9.558 16.182 9.782 21.021.636 13.28 13.983 20.61 28.645 3.984 7.962 10.627 11.087 15.2 1.768 3.68-7.498-2.895-19.318 1.1-25.72 4.866-7.801 30.91-5.68 36.342.38 4.116 4.597 6.3 10.915 10.404 15.723 6.234 7.297 8.794 17.529 12.534 26.475 3.97 9.503 7.433 19.14 10.474 28.981 2.135 6.915 6.748 17.864-4.296 11.96-7.713-4.125-13.476-13.427-23.248-13.72-9.67-.292-15.177 9.748-12.352 18.48 2.73 8.448 15.194 12.171 16.638 20.737 1.584 9.374-14.469 18.934-19.342 25.825-11.225 15.866-1.837 33.73 16.56 20.26 6.521-4.774 13.351-14.403 20.706-17.419 11.638-4.774 11.57 12.913 17.144 19.422 3.002 3.5 4.085-.057 2.307 5.175-.656 1.929-3.978 2.533-4.352 4.932-.27 1.756 1.305 2.688 1.36 4.048.184 4.612.193 5.29-.845 10.303-1.145 5.556-.73 12.461-1.074 18.11-.795 12.905-.964 25.23-2.32 38.13-.751 7.178-2.329 21.807 6.148 25.305-3.016 4.728-7.035 17.88-12.965 16.89.482 3.114.212 7.09 3.236 9.126.723-1.9 1.446-3.797 2.166-5.696 1.661 4.339.2 4.838.103 7.794.122-3.658-3.338 5.1-1.468 4.017-1.591 1.33-3.689 2.09-6.082 3.813-3.341 2.404-5.102 5.725-7.696 8.977-4.694 5.878-4.422 11.814-8.532 17.945-5.83 8.695-13.311 17.278-19.451 25.966-5 7.073-14.528 11.152-18.535 18.755-2.549 4.836-3.563 10.459-7.91 13.859-6.227 4.87-14.55 9.46-21.314 14.49-4.252 3.16-7.488 7.548-11.731 10.616-2.15 1.555-8.62 3.13-8.63 6.296-8.142-2.28-13.907-10.597-20.31-15.658-4.278-3.384-14.468-7.778-13.853-14.557.506-5.546 8.39-12.427 10.207-18.243 1.542-4.927 3.687-14.12-.573-18.33-8.942-8.829-19.079 10.122-23.878 15.166-9.9 10.406-14.108-.086-22.248-7.641-13.003-12.07-21.177.451-16.6 15.479 2.32 7.608 11.147 14.391 11.717 22.16.63 8.537-8.62 12.826-12.28 19.648-3.458 6.432-5.054 17.732 1.444 23.055 7.166 5.874 13.397-1.075 18.084-6.494 3.64-4.21 7.684-13.474 13.597-14 7.405-.657 19.552 12.793 25.186 16.944-8.56 2.478-13.712 9.646-20.95 14.236-9.34 5.926-22.377 7.328-32.83 11.395-9.845 3.833-18.704 6.954-28.08 11.709-11.125 5.639-24.734 7.048-36.516 11.156-10.517 3.668-20.494 8.812-31.238 11.84-12.108 3.414-24.675 5.467-36.886 8.551-10.438 2.636-22.685 5.171-33.442 5.19-10.885.02-10.658-6.719-14.137-15.696-4.136-10.664-10.982-20.024-15.352-30.43-4.155-9.894 2.122-13.653 8.14-21.225 5.67-7.137 4.169-8.253 11.48-3.242 9.627 6.594 15.985 2.133 23.473-5.45 6.663-6.741 9.109-12.347 18.695-7.65 9.593 4.696 18.733 12.34 29.038 15.403 8.12 2.413 14.17.66 15.53-8.222 1.468-9.594-4.004-16.406-10.9-22.105-5.25-4.332-16.72-9.476-18.638-16.51-2.022-7.41 8.626-18.223 9.765-26.51 1.434-10.46-3.072-18.15-12.997-10.91-7.202 5.252-11.994 16.645-21.99 17.353 2.775-11.647 8.798-21.995 13.965-32.669 4.329-8.932 8.042-19.075 19.666-20.071 3.77-.323 6.221.071 9.815-.576 4.75-.856 11.19-1.534 16.266-2.815 11.941-3.018 22.487-12.236 33.48-17.522 2.523 6.784 6.983 26.105 17.25 14.824 7.593-8.344-.82-22.704 6.175-31.985 14.43-19.151 45.862-5.09 64.82-14.965 8.251-4.298 14.971-18.007 3.333-22.14-6.799-2.416-26.434 6.499-30.524-.072-2.916-4.688 9.304-23 10.781-28.033 4.597-15.665 3.85-31.928 3.85-48.064 9.225 3.776 20.9 12.61 30.841 13.818 10.22 1.243 12.018-10.76 9.34-18.642-3.691-10.86-15.993-19.76-24.424-26.757-3.718-3.082-13.45-8.048-15.488-12.736-2.105-4.84.91-7.185 3.272-11.393 3.69-6.575 12.629-23.57 2.902-29.73-8.95-5.667-13.97 10.218-19.671 13.616-9.674 5.766-12.99-7.443-16.836-14.167-6.98-12.203-16.657-23.096-25.34-34.078-7.91-9.995-12.78-16.76-13.935-29.498-.873-9.649-2.847-17.116 8.529-19.31 20.17-3.884 49.699 5.69 66.081-10.72 8.593-8.605 2.456-17.5-8.395-17.059-14.252.583-27.801 1.286-42.146.13-7.624-.615-23.565 1.237-27.415-6.622-4.956-10.12 3.446-26.377-5.677-35.244-11.648-11.326-14.502 14.267-14.888 21.333-.284 5.149 1.035 12.986-2.167 17.44-2.99 4.153-8.455 4.093-12.875 5.596-11.132 3.783-16.886 17.465-2.114 20.358 4.968.975 11.898-.442 16.027 3.243 4.324 3.854 2.673 10.707 3.078 15.904-10.347-11.995-31.856-6.678-45.868-11.132-7.379-2.347-8.627-5.472-11.732-12.619-3.756-8.65-12.318-19.586-12.648-29.151-.276-8.12 6.487-14.23 9.641-21.23 2.709-6.005 5.16-15.78 4.759-22.52-.967-16.256-30.29.338-36.333 6.558-10.963 11.288-24.477 25.887-18.535 41.875 5.3 14.267 8.114 22.356-10.278 21.235-6.732-.41-20.871.922-26.095-1.921-3.878-2.11-2.42-5.892-2.548-11.376-.108-4.748.25-11.945-2.797-16.095-10.727-14.598-13.238 21.724-19.26 25.66-9.41 6.153-29.334-.297-27.797 17.966 1.346 15.978 22.94 9.453 28.915 23.2 2.876 6.623 2.265 14.331 5.888 20.72 5.164 9.109 11.519 8.624 14.943-.872 2.403-6.669-.802-13.524 1.048-19.818 2.67-9.099 15.385-8.255 23.207-9.285 9.508-1.25 17.795-3.644 26.837-6.569 11.16-3.61 10.553 2.316 12.369 10.898 2.107 9.955 5.329 19.553 7.305 29.658 1.84 9.417 6.725 19.558 7.522 28.982.606 7.204-1.836 6.547-7.801 10.705-6.522 4.544-13.7 16.355-21.268 18.298-11.383 2.922-22.857-23.101-33.213-9.785-4.449 5.716-2.728 17.888.436 23.794 4.176 7.804 11.858 9.79 5.422 18.729-4.84 6.714-10.92 11.916-11.373 20.953-.425 8.39 5.278 16.324 14.199 13.86 7.204-1.987 11.464-9.368 16.921-13.85 9.42-7.735 17.154-.57 26.795 3.808 7.588 3.448 21.537 5.696 25.343 13.801 4.832 10.287-1.363 14.263-10.343 11.338 3.499 11.5-1.105 18.182-2.367 30.07-1.024 9.621-3.236 18.422-4.644 27.726-1.873 12.42-2.071 11.073-14.853 11.496-10.86.358-21.417.067-32.263-.409-9.555-.42-16.056.445-16.486-11.087-.19-5.09 3.02-22.343-7.01-20.272-8.833 1.823-6.289 17.589-9.243 23.512-4.274 8.576-11.502 5.955-19.545 8.072-8.182 2.155-14.795 8.196-12.686 17.529 2.256 9.966 11.388 9.27 19.328 11.577 12.225 3.548 9.543 21.533 16.678 31.301 2.914 3.986 5.978 8.012 10.868 4.741 8.965-6 .5-20.659 2.87-28.014 2.492-7.734 10.892-6.15 18.831-7.154 11.72-1.479 23.988-7.132 35.662-7.063-2.236 6.738-8.51 10.655-10.767 17.749-1.21 3.804-.081 10.905-1.761 14.05-1.807 3.378-7.503 4.39-9.858 9.09-3.083 6.152-4.036 12.745-7.644 18.77-8.529 14.254-15.876 28.825-24.942 42.932-9.362 14.568-19.452 28.434-31.228 41.062-11.426 12.256-14.834 6.32-24.654-3.696-3.995-4.079-12.483-8.798-13.595-14.886-1.098-6.003 3.868-10.9 6.586-15.787 3.604-6.476 10.111-17.622 8.527-25.395-2.976-14.595-16.025-1.157-20.972 4.308-8.638 9.543-13.468 19.579-26.524 12.04-8.36-4.826-18.9-18.04-29.87-13.154-9.988 4.45-7.19 17.3-1.046 23.82 3.441 3.652 8.345 5.743 11.997 9.162 7.858 7.367 3.41 9.367-.18 17.62-2.935 6.757-3.36 20.038 2.053 25.665 10.65 11.07 18.886-11.262 28.768-11.716 4.686-.215 24.162 12.566 25.55 17.166 2.437 8.074-18.575 17.713-24.157 21.503-12.986 8.812-27.133 17.796-41.74 23.638-17.239 6.899-4.39-14.833-13.815-22.054-12.256-9.393-13.203 16.339-14.461 22.733-3.343 17.003-21.306 17.445-35.796 21.663-9.225 2.685-18.458 5.536-27.78 7.873-7.908 1.98-16.764 1.933-24.431 4.387-6.725 2.153-11.326 6.52-18.848 6.57-2.443.018-4.57-.812-6.927-.866-4.756-.118-9.116 2.602-13.662 2.32-7.56-.471-4.27-2.853-6.902-8.13-2.47-4.948-8.753-6.769-13.643-8.314-14.02-4.43-25.691-.548-27.727-18.373-.625-5.472.2-27.947-10.211-25.32-12.164 3.062-1.46 29.776-9.011 36.47-3.673 3.256-9.219 1.631-13.648 2.594-7.269 1.58-10.455 7.068-18.413 6.7-6.713-.308-12.963-3.288-18.814-6.248-8.72-4.414-19.127-7.338-26.399-14.072-9.967-9.232-14.342-23.607-18.59-36.087-6.252-18.385-8.917-36.705-9.922-55.983-.35-6.719-3.205-11.46-4.398-17.624-1.267-6.56 2.48-7.874 3.343-14.086.838-6.04.432-12.492 1.702-18.963 1.825-9.307 2.465-18.826 4.236-28.16 2.93-15.435 7.373-30.766 11.022-46.063 1.134-4.753 3.186-19.985 9.052-21.448 4.326-1.08 14.318 5.362 18.33 7.255 7.93 3.74 14.745 8.905 23.23 11.495 4.378 1.336 9.904 1.205 12.778 5.269 4.54 6.432.87 19.03 2.751 26.63 2.303 9.307 9.932 13.264 16.08 3.917 3.274-4.982 2.403-10.925 2.842-16.433.627-7.942.768-9.863 9.364-9.328 8.705.545 17.206 3.833 26.133 4.232 8.05.358 16.137.136 24.179-.304 19.527-1.068 37.39-4.246 55.703-11.197 12.404-4.71 26.791-15.005 40.463-14.642 19.299.511 14.075 18.377 16.716 31.741 1.609 8.134 15.214 33.104 20.44 12.839 2.582-10.024-6.028-24.638-.926-33.691 6.025-10.698 28.173-1.821 38.251-4.299 8.154-2.005 21.783-13.567 16.025-23.54-2.728-4.727-8.026-3.831-12.75-4.185-8.954-.669-17.846-1.89-26.726-3.197-5.05-.745-12.77-1.178-14.788-6.98-1.714-4.922 6.321-17.688 8.066-22.398 5.768-15.594 7.846-28.274 7.87-45.28.007-7.66.508-15.746-.723-23.326-.453-2.776-4.622-11.844-2.67-14.499 2.625-3.572 7.996.96 10.151 3.637 4.284 5.33 2.795 4.905.36 10.427-3.584 8.127-10.552 25.166 1.265 31.42 12.357 6.541 16.822-15.563 28.53-13.14 5.457 1.13 10.846 8.308 15.244 11.66 5.15 3.926 10.71 8.09 16.762 10.5 9.927 3.951 21.086.989 17.074-11.496-3.164-9.847-13.173-18.084-20.327-25.063-11.4-11.12-10.884-15.792-3.007-28.891 3.296-5.481 15.953-28.757 1.282-30.65-7.763-1.003-16.161 11.587-20.263 16.404-7.04 8.268-11.075 11.816-21.55 5.178-10.237-6.487-14.99-11.911-27.373-12.509-14.245-.688-20.654-22.092-28.207-33.086-20.518-29.859-51.933-44.628-78.419-67.507-12.908-11.149-21.623-25.737-31.438-39.462-4.675-6.537-10.71-11.968-14.519-19.091-2.396-4.48-8.887-15.278-7.197-20.564 2.102-6.58 13.454-10.642 18.177-15.29 3.964-3.9 6.078-8.762 12.314-7.27 5.548 1.325 10.547 8.835 15.084 12.135 4.45 3.238 9.474 6.244 14.411 8.664 8.93 4.38 19.712 6.722 20.234-6.6.456-11.524-10.053-23.865-17.647-31.638-5.527-5.658-13.898-10.578-12.803-19.562.54-4.457 4.324-12.387 6.534-16.124 7.615-12.865 30.863-5.016 43.497-4.192 15.22.997 32-1.56 44.1 9.21 3.944 3.512 13.091 10.41 15.03 15.299 2.252 5.692-1.43 8.248-3.475 13.758-2.647 7.116-4.465 21.169 3.15 26.076 12.71 8.19 19.334-16.102 32.547-10.788 12.529 5.04 21.287 19.524 35.588 21.818 18.717 2.999 8.06-20.198 1.583-27.024-8.4-8.849-24.69-18-19.356-31.085 1.522-3.74 5.004-11.54 8.135-13.86 6.13-4.548 16.012-2.051 23.03-1.977 17.717.189 34.441-1.269 51.802-4.366 5.233-.934 6.424-1.675 10.113 2.225 5.107 5.393 7.79 12.423 13.73 17.725-8.582 9.25-21.304 20.167-15.336 34.403 5.133 12.25 16.388 6.241 24.002-.303 3.575-3.073 7.27-9.577 12.009-10.81 6.152-1.601 13.065 3.988 18.1 6.824 7.56 4.26 23.726 16.889 32.312 9.434 11.357-9.862-2.081-24.7-9.904-30.79-4.732-3.683-11.034-6.311-15.015-10.858-5.3-6.05-2.19-6.94 1.02-12.392 5.875-9.976 3.72-22.826 13.12-30.62 5.212-4.323 12.662-7.04 18.613-10.208 5.857-3.121 12.142-9.312 17.889-11.687m95.764 38.802-6.857-4.2c5.224-2.548 8.673-2.244 6.857 4.2m126.103 121.23c.921-4.656 4.512-12.986 9.457-8.63 3.183 2.798-.293 13.312 7.28 10.404.39 6.697-4.598 6.129 2.76 12.086-9.283-1.076-22.098-.655-19.497-13.86m-360.333 564.54c2.336-6.272 2.317-15.997 9.514-10.265.377-7.593-1.422-31.679 12.369-30.702 5.622.4 5.56 5.358 7.047 9.654 2.589 7.493 6.965 14.32 10.65 21.302-13.683.554-27.376 3.684-39.58 10.012m4.479 86.568c7.82 5.906 11.74-1.068 19.122-3.613 6.813-2.349 13.886-.942 21.434-2.61 9.362-2.066 20.387-1.753 29.534-1.835 2.253-.019 6.966.337 9.242.6 4.15.476 3.778 1.334 8.074 2.49a40.674 40.674 0 0 1 5.025-.834c2.072-.09 3.704.767 4.902 2.571 3.861 1.288 5.267.43 8.963 1.333 8.808 2.151 15.38 7.456 21.132 14.488 11.71 14.317 12.058 35.832 11.79 53.552-.076 5.046-.462 10.067.096 15.101.51 4.617 3.773 11.594 2.441 16.184-2.02 6.946-8.276 5.383-15.561 5.694-4.289.184-8.57 2.949-11.982 3.195-3.3.239-4.63-.98-7.97-1.728-8.716-1.95-19.001.832-27.6 3.204-8.822 2.435-16.556 4.837-25.502 6.56-5.823 1.12-11.061 1.758-16.932 2.492-4.815.602-6.894 3.137-11.094 4.181-4.052 1.004-8.001-.502-12.09.29-5.572 1.077-9.454 5.165-14.532 7.201-6.997 2.805-18.185-1.388-21.284 7.264-1.215-8.344-9.219-6.076-15.178-6.815-9.82-1.216-19.494-5.622-28.937-8.43-7.744-2.3-34.519-23.521-39.645-14.91.007-.87.938-5.801.129-6.37-2.857-2.01-2.833-.906-5.909-2.163-4.706-1.923-6.689-3.66-10.051-6.903-6.801-6.554-15.955-9.983-23.12-15.93-18.002-14.939-24.164-45.713-28.555-67.134-5.744 10.181-3.63-2.884-2.637-7.25 2.35-10.3-.673-15.38-1.355-25.33-.63-9.154 3.544-10.965 11.808-11.921 10.182-1.18 19.983-2.83 29.956-5.37 9.524-2.427 18.855-5.165 27.448-9.992 7.865-4.418 16.118-6.155 24.16-10.021 8.87-4.265 17.566-8.75 26.515-12.905 4.033-1.871 21.792-15.271 24.875-14.457 6.329 1.678.356 12.76-1.575 15.668-4.959 7.47-13.099 10.934-20.441 15.634-6.625 4.237-26.714 24.31-6.32 22.296 13.514-1.333 22.669-15.496 31.314.643 3.053 5.701 7.541 10.274 4.033 16.164-4.899 8.215-19.03 12.132-26.44 17.66-6.315 4.715-19.235 26.932-6.215 29.314 3.742.684 9.512-.2 12.295-3.11 1.878-1.962 1.744-5.998 3.644-7.341 2.69-1.904 7.915.454 10.987-.59 4.376-1.489 5.402-3.876 7.01-8.079 4.673 2.132 4.74 4.992 10.076 2.241 1.768-.912 2.42-4.258 4.467-5.151 2.752-1.2 3.57 2.733 5.081 2.153 4.09-1.568 4.076-3.336 5.372-7.381m-280.478-65.35c-7.835.589-16.392 1.22-23.081-3.775 8.125.49 15.292 2.323 23.432.646 3.238-.667 8.419-3.723 11.736-2.66 11.784 3.778-8.949 5.553-12.087 5.79m-21.761-689.299c-.117-2.757-2.456-39.84 10.213-25.273 3.468 3.985-.272 9.321-.766 13.73-.833 7.426 1.77 14.87 5.685 21.122 3.648 5.833 10.466 10.94 9.445 18.545-.895 6.673-7.63 12.37-10.949 17.909-8.161-12.863-12.972-30.557-13.628-46.033m-27.845-389.16c-29.355 3.088-58.561 8.555-86.864 16.99-27.79 8.282-53.693 21.23-79.805 33.634-5.381-23.042-11.018-46.024-16.332-69.082-2.559-11.099-5.002-22.224-7.396-33.361-1.704-7.919-7.901-22.68-5.314-30.47 1.372-4.127 3.183-4.144 6.135-6.693 1.802-1.556 4.945-5.36 6.813-6.174 4.553-1.979 16.242-3.714 20.9-3.432 4.246.256 6.465 1.943 10.832.722 3.72-1.04 6.842-3.9 10.333-5.47 8.88-3.992 19.964-5.33 29.462-7.443 9.14-2.033 18.576-2.485 27.737-4.499 8.025-1.766 11.839-7.673 18.683-7.46 17.812.557 37.509-1.53 55.182-5.785 19.829-4.774 41.4-3.851 61.743-4.363 8.104-.203 13.8-2.026 13.842 6.996.047 11.013-4.351 23.374-6.594 34.124-4.978 23.835-9.193 47.003-11.076 71.206-.94 12.105-5.903 11.259-15.745 14.972-10.951 4.131-20.89 4.365-32.536 5.589m-154.336 244.534c7.233 1.068 6.402-18.714 6.932-22.735 17.244 32.52 36.667 63.814 51.86 97.4 3.552 7.855 6.776 15.89 10.53 23.649 2.567 5.312 8.314 12.444 8.175 18.623-.145 6.45-5.355 8.863-10.846 11.254-5.932 2.583-8.25 3.871-12.43.885-5.062-3.618-9.288-14.76-12.412-20.132-4.775-8.2-9.345-16.518-14.02-24.773-8.47-14.965-18.463-29.295-25.422-45.006-6.52-14.718-16.382-27.383-23.408-41.841-6.959-14.32-16.483-27.894-24.482-41.909 8.035-3.342 18.048-11.693 27.176-11.23 9.427.48 9.197 9.58 9.605 17.161.432 8.048-2.262 37.027 8.742 38.654m23.16 146.922c-4.3 5.104-14.001 8.103-19.95 10.932-8.238 3.919-16.674 7.405-24.874 11.405-26.901 13.125-53.693 25.142-81.098 37.196-14.168 6.23-28.162 12.853-41.986 19.806-7.243 3.644-23.198 16.409-31.531 16.734-9.55.37-9.775-18.915-11.88-26.15-1.768-6.053-5.05-10.765-7.257-16.502-.9-2.346-.2-4.122-1.572-6.444-1.561-2.645-5.933-4.777-8.18-7.059-9.546-9.694-17.46-22.035-25.523-32.957-7.386-10.005-19.984-22.53-23.527-34.79-6.966-24.1 33.507-37.44 48.992-47.125 27.111-16.953 54.354-34.368 80.199-53.204 11.772-8.58 23.298-17.5 35.13-26.004 5.522-3.966 20.823-19.402 27.908-13.904 2.64 2.05 2.69 7.715 3.792 10.686 2.406 6.49 6.06 12.157 9.76 17.978 3.287 5.156 7.96 10.487 10.014 16.238 2.448 6.86 2.334 10.746 6.815 16.899 8.15 11.192 11.999 24.102 19.576 35.509 7.307 11.001 14.325 19.116 19.103 31.407 2.742 7.044 7.066 13.295 10.889 19.773 1.799 3.058 3.682 6.066 5.295 9.232 2.89 5.661 3.909 5.59-.095 10.344m-231.25 94.135c-5.171 3.701-12.784-2.519-17.8-2.605-2.18-.038-4.348 1.663-5.806 1.618-4.384-.131-7.966-3.075-11.999-4.447-18.628-6.337-40.835-6.578-56.748-19.445-31.612-25.562-16.54-76.852-10.784-110.08 1.174-6.776 3.284-16.16-2.19-21.707-6.002-6.084-15.027-2.454-20.52 2.468-5.637 5.044-9.467 12.112-14.152 18.004-7.462 9.386-15.607 18.256-23.833 26.968-29.228 30.948-60.18 66.36-96.335 89.07-15.04 9.449-28.649 22.251-45.131 29.45-19.826 8.662.527-24.77 4.092-30.204 23.334-35.553 57.304-63.698 85.836-94.909 5.383-5.89 13.03-13.83 13.125-22.315.145-12.743-11.111-11.598-20.01-8.062-8.324 3.31-12.495 11.546-19.191 17.173-8.338 7.006-18.08 12.688-27.36 18.341-20.015 12.196-41.263 22.43-62.444 32.408-9.909 4.667-19.864 9.233-29.82 13.802-2.733 1.254-19.065 11.615-18.285 2.733.108-1.194 10.526-13.846 11.813-14.317 6.414-2.344 9.595 4.733 15.304-4.543 4.056-6.587 4.62-10.007 10.347-15.005.974-.848 1.644-2.999 2.434-4.394-.098.525 4.255-3.709 3.422-2.973 1.143-1.008 2.804-2.86 3.732-4.072 4.477-5.844 13.082-5.956 16.975-12.635 1.484-2.545.642-5.806 2.431-8.332 2.506-3.541 8.02-5.049 10.963-8.165 2.523-2.676 4.601-4.86 6.167-6.497 1.078-1.127 2.97-1.918 4.247-3.209 3.174-3.211 2.926-6.057 7.37-8.757 3.99-2.423 5.825-.155 7.204-6.157 4.856 3.113 4.248-1.441 6.219-4.703 2.563-4.244 5.818-6.136 9.35-9.206 7.77-6.758 15.053-16.817 21.666-25.324 16.44-21.153 29.739-45.889 34.636-72.431 1.171-6.346 1.818-12.76 2.283-19.194.249-3.384-.856-11.625 1.241-14.942 3.253-5.142 9.429-3.101 14.13-5.352 1.596-.765 3.171-3.02 4.67-3.532 2.095-.714 4.66-.016 6.835-.707.844-.267 1.04-2.752 2.439-3.07 2.74-.629 5.462.368 8.17.406 5.928.079 11.782-.965 17.466-2.855 5.172-1.718 9.5-5.659 14.66-7.078-.527.146 8.505.863 8.018.356l1.296-6.674c3.43 2.395 15.122 5.553 18.75 5.006 5.83-.88 4.6-6.133 9.543.767l8.393-7.319c2.119 8.892 16.714 4.576 23.331 5.068 9.321.696 16.664-1.056 25.16 2.19 10.333 3.951 19.394 8.116 30.522 9.194 7.777.75 11.01 4.406 18.628 6.661 10.237 3.03 11.046 6.37 7.844 16.832-2.597 8.48-4.84 15.02-1.048 23.72 6.73 15.43 25.014 21.787 36.803 32.45-27.615 19.382-54.882 38.447-81.579 59.099-11.184 8.65-23.08 17.316-29.45 30.33-5.875 12.01-9.209 26.446-12.743 39.303-8.109 29.481 14.733 49.32 38.201 62.288 4.856 2.681 38.301 44.656 31.512 49.512m-45.546 35.634c-1.652-5.67-1.434-7.183 4.04-9.219 2.071-.77 10.013-1.775 11.297 1.068 2.911 6.452-12.383 6.368-15.337 8.15m232.71-410.863c1.961 12.58 3.892 25.166 5.643 37.775.965 6.967 3.155 13.13-2.035 18.384-2.947 2.985-10.102 4.098-13.867 5.687-5.432 2.294-10.722 4.922-15.946 7.656-9.312 4.877-19.043 7.813-28.233 12.21-3.998 1.909-6.367 5.672-9.827 8.267-4.735 3.553-10.496 5.281-15.38 8.66-8.732 6.043-16.736 13.197-25.463 19.28-9.887 6.894-11.946 4.679-17.5-5.508-4.985-9.144-10.967-13.316-18.146-20.484-2.79-2.789-12.781-18.676-4.295-20.045 2.174-.352 9.686 2.915 11.388 3.961 2.587 1.587 6.72 10.607 8.822 10.76 3.787.277 8.639-10.506 10.999-13.345 15.468-18.619 32.486-37.036 50.412-53.323 9.29-8.442 19.05-16.133 29.584-22.948 7.49-4.843 14.027-11.634 21.413-16.23a14.008 14.008 0 0 1 5.317-2.898c3.854-1.751 5.3-.24 4.34 4.53 2.21 4.667 1.972 12.46 2.774 17.611M1129.3 782.798c3.761-3.828 8.51-6.889 11.789-11.159 1.85-2.408 3.069-6.719 5.186-8.277 3.684-2.714 8.956-1.462 13.242-5.101 4.14-3.518 7.774-7.73 11.817-11.379 8.763-7.907 17.807-15.175 26.405-23.225 4.885-4.574 10.011-10.51 14.352-13.53 1.15-.8 2.439-1.992 3.663-2.609 2.615-1.316 3.918.024 7.737-1.204 2.524-.81 4.326-4.005 6.352-5.517 4.813-3.596 11.087-5.02 15.721-8.48 4.635-3.46 6.864-8.834 13.242-11.72 7.716-3.49 13.498-.732 19.075-7.405 2.274-2.72 2.897-6.148 6.467-7.864 4.303-2.07 8.08.127 12.19-2.225 2.768-1.586 4.66-4.912 7.521-6.647 5.12-3.1 10.782-3.426 15.569-7.262 4.04-3.232 1.797-2.903 6.582-4.267 2.102-.6 4.436-.858 6.682-1.625 7.192-2.454 18.938-5.457 23.197-12.28 2.163 3.155 2.905 3.795 6.413 2.815a39.24 39.24 0 0 0 5.07-4.946c1.13 1.427 2.342 1.513 3.633.256 7.59-2.61 14.554-7.092 22.03-9.58l3.177 1.716c1.475.082 2.071-.638 1.792-2.162 2.943-.538 6.331-1.83 9.042-3.01 5.198-2.266 10.937-7.647 17.06-5.721 10.226 3.216 10.715 24.071 12.479 32.336 4.348 20.37 8.724 40.73 13.091 61.096 1.776 8.287 3.337 16.635 5.675 24.783 1.528 5.324 5.331 13.173 3.96 18.834-1.686 6.939-8.456 9.2-14.119 12.408-7.803 4.423-15.346 9.329-22.732 14.423-31.352 21.624-54.727 51.363-76.956 81.872-4.119-5.983-15.151-14.387-22.026-17.085-4.816-1.887-9.15-.365-13.944-2.669-3.42-1.644-6.257-4.857-9.49-6.927-19.74-12.642-43.566-23.091-66.447-28.107-46.945-10.296-92.904 5.647-138.424 13.212 9.238-12.698 23.048-20.703 33.927-31.768m314.24-344.57c8.033-26.181 21.562-51.528 40.817-71.17 9.708-9.901 21.117-18.556 33.906-24.061 11.125-4.786 24.358-9.376 24.186 6.014-.377 33.412-8.095 66.443-9.037 99.907-.92 32.793 4.572 59.115 24.42 85.54-12.577 2.92-25.146 5.883-37.674 8.99-9.515 2.358-19.38 5.005-28.382 6.625-8.898 1.599-17.081 2.64-25.88 5.649-5.93 2.026-15.222 8.222-21.64 6.877-10.667-2.235-8.142-40.497-8.688-49.691-1.542-25.962.31-49.694 7.973-74.68m194.958 50.41c14.574-17.687 29.715-38.322 54.233-41.607 23.706-3.176 32.443 25.254 30.937 44.422-.51 6.487-1.475 23.33-6.188 28.585-5.214 5.813-14.466 1.431-21.09.535-28.592-3.87-57.906 2.59-86.576 2.59 9.56-11.512 19.17-22.98 28.684-34.525m117.317 70.539c9.944 1.424 17.886 2.941 13.084 14.26-9.612 22.671-16.998 44.31-8.574 69.024 6.434 18.874 26.804 41.787 47.162 45.57 7.133 1.325 17.864-1.047 22.248 6.197 3.904 6.454-.327 25.806-.785 32.972-1.692 26.695-8.529 53.182-25.809 74.16-15.375 18.663-34.137 33.27-56.5 15.652-18.85-14.848-29.98-41.411-35.557-64.11-2.978-12.12-3.34-24.21-3.908-36.595-.504-10.953-2.592-17.9 9.793-20.17 3.322-.606 11.615-.418 11.627-5.486.019-6.81-8.976-4.255-12.414-4.6-13.269-1.323-7.054-16.752-5.818-26.73 2.107-16.989 5.517-33.79 8.648-50.609 2.666-14.327 2.806-33.1 8.596-46.496 3.379-7.82 21.57-3.99 28.207-3.04m24.424 50.312c1.508-9.235 2.313-20.776 11.476-25.88 10.07-5.608 15.11 3.53 20.082 10.996 13.18 19.806 27.765 38.341 29.925 62.931.258 2.932 1.515 8.82-1.31 10.848-1.263.908-4.277-1.481-6.226-1.34-10.44.75-17.991 3.548-28.229-2.347-20.029-11.536-29.36-32.924-25.718-55.208m78.755 55.31c-2.152-21.5-12.084-40.567-23.178-58.72-5.468-8.95-16.092-18.735-19.865-28.19-2.023-5.066 1.556-11.338 8.911-9.166 3.663 1.082 10.717 10.795 13.166 14.157 6.29 8.638 11.502 18.272 16.478 27.706 5.319 10.078 20.434 47.072 4.488 54.214m-65.938-214.105c1.165-20.23 1.282-43.46 14.385-60.248 10.155-13.017 28.747-18.685 43.831-23.717 20.32-6.782 44.728-7.828 65.979-5.637 18.704 1.93 32.822 14.664 44.362 28.666 11.739 14.239 20.833 32.573 28.906 49.141 2.02 4.146 19.154 30.743 7.565 30.124-4.596-.246-8.593-9.22-12.113-11.87-2.759-2.077-6.026-1.819-8.498-3.48-2.651-1.78-2.078-3.426-4.133-5.624-14.156-15.116-27.178-6.411-42.446 1.55-.714-5.273.536-15.07-3.874-18.924-5.77-5.044-11.798 2.946-15.938 6.865-3.768 3.57-8.412 10.074-13.159 12.004-6.161 2.507-4.066-.157-9.419-2.262-10.777-4.24-19.064 8.305-24.513 15.6-2.033 2.722-5.357 9.592-8.996 10.327-3.52.71-3.98-1.796-7.014-2.723-8.581-2.617-10.956 3.502-13.69 11.1-3.076 8.546-5.694 16.777-10.247 24.758-8.055 14.122-11.517 18.767-5.146 34.36-9.304 1.381-11.256 2.49-15.871-5.766-4.752-8.508-5.985-15.567-5.687-25.347.625-20.453-5.482-38.121-4.284-58.897m215.996 96.78c9.741 17.59 15.932 42.07 15.83 62.113-.054 9.943-.636 22.172-5.277 31.192-4.456 8.654-13.78 12.989-22.368 16.676-20.702 8.89-44.024 8.788-65.79 4.824-11.297-2.06-22.286-.729-31.953-7.517-7.274-5.111-16.049-10.074-18.18-19.443-.892-3.921.485-7.209.198-11.056a10.08 10.08 0 0 0-.394-5.36 150.881 150.881 0 0 0-3.842-2.136c-1.016-2.922.931-6.179.432-9.23-.601-3.685-3.66-6.683-5.09-10.024-3.937-9.206-1.126-14.358 6.245-20.611a445.609 445.609 0 0 1 5.324-4.124c1.604-2.536 3.375-2.545 5.312-.034 3.51.048 3.408 1.13 7.1.055 8.087-2.356 14.872-10.96 22.795-13.983 3.078-1.175 7.67-.177 10.17-2.344 2.234-1.938.797-6 2.761-7.902 6.265-6.076 16.125-.315 21.922-9.149 4.73-7.207 3.727-17.433 4.212-25.617 14.523 2.776 20.814 16.692 32.745 23.693 2.36-9.146 2.704-8.874 11.815-11.385-4.128 7.634 2.547 15.065 6.033 21.361m11.116-97.108c2.675 3.446 4.718 12.003 0 12.83v-12.83m12.397 31.123c22.174.045 36.347 28.076 42.821 45.44 7.038 18.884 14.452 44.069 1.32 62.46-5.038 7.051-11.216 7.699-19.32 6.784-9.765-1.102-14.772-2.514-10.949-12.949 7.16-19.553 1.773-44.41-10.915-60.778 17.451-3.371 6.388-19.378-2.37-25.368-10.23-6.994-18.497-15.627-.587-15.59m-506.25 1013.351c-5.217 13.838-10.52 27.632-14.896 41.887-4.15 13.508-1.745 28.731-6.904 41.72-3.174-1.57-4.083-4.358-6.842-6.052-1.701-1.05-4.663-1.463-6.123-2.617-2.508-1.978-8.596-9.35-10.245-12.208-5.699-9.892-1.897-25.97 1.148-36.135 3.77-12.59 10.211-24.678 18.86-34.597 6.068-6.953 9.414-4.74 17.525-1.316 4.797 2.023 9.736 3.318 7.476 9.318M1486.794 1604c-4.167 8.43-11.868 15.379-16.442 23.875-4.802 8.92-8.436 18.973-14.557 27.13-6.234 8.315-11.834 6.925-20.416 10.511-3.08 1.286-4.376 3.673-6.856 5.534-4.649 3.484-9.746 5.625-14.633 8.727-3.475-8.528-14.092-51.33-27.6-50.413-11.744.796-5.738 23.204-4.222 29.818 1.279 5.584 2.742 11.254 4.689 16.647 1.966 5.446 8.094 13.6 5.827 19.57-2.88 7.586-10.049 7.087-13.638 1.553-3.002-4.628-4.527-10.917-6.739-15.954-1.945-4.428-10.836-28.662-18.523-24.903-7.403 3.62 4.112 27.113 6.04 31.73 4.653 11.141 13.578 21.85 1.783 30.78-17.903 13.555-39.95 23.76-60.01 33.534-11.708 5.703-22.235 13.204-34.524 17.834-11.414 4.301-24.604 5.035-35.638 9.979-2.716 1.218-.895 2.733-4.862 3.44-3.326.59-9.137-.998-12.705-.965-5.908.055-11.829.507-17.726-.236-3.321-.419-10.884-4.058-9.688 1.952-4.7-1.305-6.517-6.048-9.947-9.01-3.054-2.644-6.956-4.075-10.366-6.149-7.05-4.291-12.323-9.18-14.438-17.354-4.966-19.197 5.532-39.175 18.49-52.559 7.436-7.677 16.16-14.062 22.98-22.329 2.394-2.9 4.096-6.272 7.134-8.628 3.718-2.89 8.82-3.248 12.42-6.172 2.68-2.175 3.482-5.642 6.291-7.64 4.155-2.948 9.016-1.724 12.94-5.598 2.238-2.212 9.922-12.63 9.382-15.517l6.315 2.115c1.279-6.42 12.352-14.34 17.814-17.414 2.763-1.556 8.145-1.48 10.2-3.152 2.734-2.23 2.51-6.898 4.68-9.694 6.22-8.012 19.243-11.608 27.483-17.187 10.483-7.102 20.666-15.145 30.135-23.548 19.141-16.987 36.015-36.724 49.801-58.286 5.553-8.686 10.706-17.543 14.66-27.063 2.434-5.859 4.863-16.277 10.875-19.675 6.209-3.51 20.468 1.243 27.421 1.745 10.214.736 26.134.28 35.288 5.297 9.786 5.367 1.83 9.804-3.207 16.2-7.372 9.362-11.792 20.825-15.474 32.057-2.835 8.638-3.365 17.001-5.219 25.71-1.959 9.207-1.94 21.64 2.597 30.1 4.496 8.376 36.874 24.134 32.185 33.608m-386.04 169.763c-21.988-29.935-3.784-73.755 17.724-97.943 25.952-29.187 62.888-45.603 93.226-69.337 35.082-27.445 71.114-52.94 102.2-85.131 15.756-16.316 29.476-33.902 41.916-52.862 10.56-16.1 18.225-37.545 39.561-39.873-12.586 15.69-13.32 38.291-23.052 55.758-10.302 18.497-25.491 33.88-40.96 48.097-32.662 30.021-67.94 57.524-103.22 84.355-18.008 13.694-35.517 28.006-53.462 41.767-16.073 12.327-32.956 22.87-42.218 41.653-15.979 32.403-16.933 80.412 18.454 100.373-18.234-3.634-38.743-11.307-50.169-26.857M3017.841 423.866c-6.505-13.015-18.697-17.651-30.939-22.743-11.982-4.982-22.933-11.12-36.223-12.714-5.908-.71-22.575 1.051-23.353-7.513-.649-7.134 16.764-14.296 20.778-19.732 5.95-8.057 9.992-21.139 7.685-31.316-2.189-9.65-11.574-12.7-20.34-14.449-27.26-5.436-56.246-1.438-83.578.796 3.346-4.678 8.062-8.516 10.744-14.12l4.334 9.01c2.467-5.153 5.142-10.209 8.211-15.033 2.076 2.332 4.155 4.667 6.228 6.999-3.45-12.112 8.157-12.05 6.935-22.26-.475-3.972-3.164-5.711-3.823-8.903-1.298-6.347 3.601-10.316-1.976-16.2-6.207-6.555-16.358-3.955-23.584-3.344-.907.08-2.222 1.874-3.394 2.02-1.625.205-2.56-2.032-4.57-1.912-5.386.318-10.134 4.502-15.49 5.773-24.813 5.892-49.636 16.4-73.455 26.212-24.245 9.988-48.05 21.617-69.188 37.292-22.625 16.776-38.967 38.343-57.036 59.593-8.494 9.985-17.28 19.574-23.745 31.08-3.34 5.944-6.362 24.618-12.376 27.332-6.531 2.949-22.952-5.388-29.631-6.927-15.722-3.617-31.372-5.128-47.49-4.401-12.819.573-26.345.232-39.06 1.799-7.38.91-25.772 9.099-26.954 18.255-.52 4.07 4.14 7.453 5.186 11.267 1.582 5.768-1.03 11.878.79 17.658 3.713 11.784 20.95 16.121 31.106 19.832 28.358 10.365 57.102 18.401 85.752 27.68 12.45 4.033 23.093 10.453 34.369 16.9 9.352 5.343 17.886 10.688 8.438 20.721-8.949 9.505-7.832 13.34-5.166 26.435 2.81 13.818 3.785 27.789 7.45 41.473 3.646 13.627 10.462 26.645 9.135 41.063-1.33 14.37-7.276 29.132-12.836 42.302-5.618 13.305-11.82 26.452-17.924 39.543-5.647 12.11-11.758 24.387-24.821 29.555-24.942 9.866-56.805 8.301-82.798 4.72-29.503-4.067-59.979-10.963-87.88-21.489-26.828-10.119-56.336-25.64-78.522-43.982-11.853-9.795-24.69-17.054-37.268-25.82-12.748-8.884-22.427-20.865-33.595-31.503-21.888-20.848-48.833-35.213-76.567-46.675-31.178-12.884-63.37-11.546-96.407-12.94 5.2-10.216 11.893-19.982 14.349-31.356 2.56-11.847.706-24.719-.914-36.554-3.148-23.036-9.109-43.31-23.651-61.915-6.651-8.509-14.416-15.142-25.494-16.377-6.71-.75-19.112 4.404-23.957-1.28-2.133-2.507-1.634-7.779-2.978-10.866-1.188-2.74-3.58-5.498-4.875-8.475-5.546-12.726-12.467-23.973-19.375-36.047-2.75-4.8-4.878-11.888-8.627-15.928-2.038-2.199-4.66-3.197-5.804-4.805-2.133-3.009-3.116-8.51-4.897-11.905-3.045-5.81-6.92-11.21-11.392-16.007-7.15-7.665-16.352-14.43-26.152-18.248-5.444-2.122-9.434-2.623-15.12-2.313-1.666.091-3.518 1.052-5.184.925-3.987-.303-3.362-1.732-6.558-2.397-21.38-4.451-50.047 1.795-70.1 9.463-21.124 8.076-38.28 18.726-51.116 37.863-31.53 47-24.183 107.687-10.807 159.455-8.09-2.125-16.147-4.638-24.315-6.438-5.002-1.104-11.827-.896-16.294-3.536-9.94-5.873-1.857-20.946-1.797-30.685.155-24.745-11.524-63.442-36.994-73.894-26.539-10.89-58.824 19.68-75.23 37.015-10.524 11.12-20.094 23.106-30.167 34.628-7.037 8.052-16.33 20.89-28.667 18.786-26.909-4.588-18.702-55.777-17.507-73.08 1.89-27.351 5.916-55.14 5.938-82.562.014-16.668-2.871-39.155-23.341-41.11-28.174-2.688-54.863 22.936-71.293 42.652-43.327 51.987-52.9 120.702-41.311 185.94 1.702 9.564 7.126 21.36-3.224 27.298-13.598 7.802-30.982 12.526-45.594 18.253-32.677 12.803-62.936 29.883-93.701 46.575-30.457 16.528-60.43 32.934-87.91 54.229-27.393 21.228-54.509 43.722-79.463 67.788-12.438 11.995-24.44 24.511-35.763 37.572-10.655 12.287-19.286 26.241-30.867 37.725-7.883 7.818-22.385 18.303-24.117 30.23-1.4 9.628 14.838 16.302 22.167 20.75 5.023 3.052 8.505 2.959 8.868 8.397.448 6.784-6.701 17.656-9.247 24.122-6.487 16.499-14.965 30.164-26.11 43.894-24.687 30.413-54.519 56.197-82.833 83.212-26.31 25.104-52.09 49.81-71.374 80.957-4.725 7.632-16.486 23.307-5.31 30.449 2.892 1.85 11.767 3.311 14.712 1.326 3.649-2.461 1.8-6.167 6.111-8.636-1.08 8.294 36.584-7.911 39.514-9.414 7.916-4.055 15.075-8.81 23.167-12.444 4.746-2.134 5.322-5.104 8.997-7.484 1.964-1.274 1.987.435 4.617-.356 2.368-.717 7.923-.987 9.689-3.269.048-.064 1.976-5.584.336-4.442 6.417-4.466 10.21 2.292 6.358 8.638-11.388 18.752-25.787 32.55-30.25 55.084-1.62 8.186-4.386 23.38.61 30.843.182.27 1.865-.521 2.07-.23.19.273 2.024 2.822 2.778 3.546 4.414 4.225 4.13 6.108 11.5 5.931 3.269-.079 9.786-.497 12.779-1.974 2.25-1.11 3.35-3.847 5.08-4.822 1.752-.989 1.544-1.502 3.188-2.078.337-.12.984 2.755 1.623 2.635 3.51-.662 5.023-2.76 8.006-4.449 8.596-4.865 17.022-10.212 25.208-15.113 8.237-4.93 14.392-11.806 22.599-17.534 8.717-6.083 15.848-10.75 22.553-19.194 4.642-5.847 10.18-7.976 13.297-10.853 3.7-3.42 10.073-16.612 16.034-18.181 2.714-.717 4.885 1.687 6.372.702 1.675-1.106-.15-3.228.69-4.475 1.567-2.328 1.763-2.715 4.429-4.849 3.415-2.73 7.61-3.464 10.476-7.022 3.186-3.96 3.622-8.399 7.543-12.107 9.429-8.923 17.824-18.323 27.816-26.97-3.859 21.517-7.682 42.883-4.692 64.768 2.897 21.209 11.899 30.707 29.567 41.471 3.89 2.37 7.97 5.819 12.147 7.498 2.54 1.023 6.362.414 8.255 1.164 6.407 2.54 4.228 7.74 5.106 13.598 1.363 9.083 9.71 16.072 15.097 23.147 4.531 5.952 12.702 19.49 20.284 21.546 6.844 1.854 13.301-6.15 19.003-9.56 8.595-5.14 17.96-8.825 27.023-13.025 17.704-8.203 34.81-17.99 52.316-26.667 7.997-3.961 16.075-5.574 24.537-8.133 10.166-3.073 18.84-8.951 28.591-12.963 17.53-7.214 34.328-15.82 51.751-23.395 36.065-15.675 75.4-26.444 107.492-49.961 14.519-10.64 33.211-11.773 47.52-22.112 14.912-10.779 5.768-27.261-.616-40.487-17.446-36.135-27.858-73.661-51.875-106.578-12.478-17.104-24.007-34.779-34.889-52.96-9.626-16.093-9.43-34.317-11.845-52.494-1.618-12.148-3.134-24.346-5.11-36.441-1.253-7.687-5.3-17.371-.405-24.34 5.26-7.485 17.75-10.673 25.644-14.622 9.81-4.908 19.31-10.19 29.488-14.344 23.26-9.494 47.761-16.065 72.162-21.864 7.276-1.73 38.42-14.097 44.348-6.853-7.28 4.868-9.407 13.706-12.674 21.28-4.863 11.288-9.884 22.043-13.433 33.874-7.33 24.458-13.569 49.306-19.547 74.125-5.937 24.642-13.013 49.478-14.829 74.864-.928 12.957-.29 25.925-.315 38.897-.023 13.842-2.894 27.422-2.381 41.3.341 9.227 1.117 20.315 6.522 28.188 5.009 7.295 13.526 8.107 20.95 12.01 9.793 5.146 13.628 7.342 13.719 18.541.107 13.054-.737 25.873.484 38.917 4.253 45.428 19.514 99.334 49.976 134.406 2.026 2.332 61.13 76.878 67.67 65.966 4.508 5.335 11.245 7.288 16.79 11.94 8.716 7.311 17.269 13.156 24.476 22.212 13.118 16.48 24.269 35.792 27.55 56.864 2.819 18.134 1.124 39.815-9.104 55.533-10.259 15.768-32.194 26.112-48.751 33.875-21.766 10.203-43.854 11.35-67.487 8.793-11.66-1.261-23.229-3.233-34.805-5.094-4.816-.774-10.433-.779-14.991-2.592-4.89-1.943-6.546-4.094-11.426-4.335-3.647-.18-5.64.629-9.493-.177-4.77-.996-9.949-2.807-14.707-4.03-5.289-1.363-9.627-3.3-14.502-5.8-4.513-2.313-9.596-2.76-13.94-4.95-7.485-3.78-9.793-10.096-19.92-6.596-10.692 3.697-8.456 12.944-15.28 19.283-6.064 5.637-13.577.425-19.612-2.925-8.882-4.931-18.108-9.034-27.565-12.769-10.216-4.033-20.652-7.54-31.283-10.317-11.629-3.037-24.403-3.64-35.605-8.06-9.843-3.883-14.08-11.395-21.212-18.413-7.5-7.383-17.678-10.196-28.076-9.539-18.936 1.2-31.868 21.67-41.871 35.887-27.947 39.715-58.839 73.552-96.195 104.751-17.848 14.903-37.967 27.58-55.228 43.046-7.28 6.526-12.567 12.643-21.189 17.5-11.325 6.383-21.603 14.387-32.43 21.584-42.35 28.143-73.413 69.141-61.7 122.674 5.271 24.095 15.8 41.01 35.473 55.51 8.932 6.582 17.106 12.057 28.484 11.677 10.744-.361 20.222-.734 13.894-13.517 8.018 2.482 14.728 8.609 23.481 11.746 10.085 3.613 23.206 5.864 33.913 6.084 17.144.35 37.311-8.688 52.324-12.521 4.198-1.068 12.285-2.822 17.067-6.767 3.804-3.137 2.979-6.85 8.734-8.34 7.544-1.951 10.417.33 17.64-4.24 10.482-6.636 21.848-10.576 32.72-16.69 14.645-8.24 28.725-17.527 43.237-26.012 1.932 5.333 13.301 37.017 20.322 21.744 6.111-13.3-13.727-24.683-1.668-38.145 11.505-12.839 13.91.66 25.069 6.619 15.492 8.274 13.168-7.18 8.665-16.335-1.802-3.66-5.59-9.18-4.475-13.45 2.153-8.246 8.823-3.407 14.068-2.566 8.26 1.326 14.936-.946 21.138-6.488 5.172-4.62 13.724-8.611 16.85-14.702 1.564-3.049 1.838-7.237 3.139-10.475 1.715-4.268 2.937-3.233 3.563-8.526a32.321 32.321 0 0 1-.716-8.315l4.064-.824c.04-.194.136-5.534-.41-4.739 1.264-1.837 3.982-2.616 5.545-5.166 1.437-2.346.1-6.843.678-9.612 1.17-5.606 4.36-10.13 6.966-15.128 5.515 23.333 3.918 47.665 9.187 71.01 4.33 19.165 14.185 36.346 25.682 52.06 5.33 7.284 12.383 12.452 17.963 19.375 4.72 5.856 7.08 11.015 14.048 14.477 4.635 2.299 9.849 3.484 14.626 5.47 3.055 1.27 10.006 7.12 12.872 7.017-2.496.091 4.692.313 3.026.03.124.02-.852-3.131.015-3.079 10.421 9.866 21.305 9.89 33.364 16.022 5.524 2.81 7.59 2.635 13.48 3.675 7.63 1.345 14.051 5.698 21.356 6.162 11.247.714 23.914 2.225 35.64 1.809 3.191-.115 9.186-2.17 11.689.621 1.651 1.84-1.482 15.159-1.68 18.208-2.062 31.978 2.212 65.55 15.705 94.81 11.187 24.263 23.116 52.965 42.904 71.493 21.933 20.534 52.658 35.007 81.994 40.546 32.48 6.131 64.675 1.541 97.257-.365 33.058-1.934 63.642-6.624 95.521-16.206 29.649-8.91 57.73-20.523 86.096-32.773 19.294-8.33 43.757-20.32 33.643-45.605-2.446-6.115-11.93-23.116-20.32-14.729-7.426 7.422 4.985 21.467 10.603 26.181-42.337 29.524-93.713 39.29-143.252 49.749-27.207 5.744-54.01 5.5-81.683 5.581-23.449.067-46.897.741-70.195-2.535-21.077-2.963-45.618-8.52-61.304-23.93-16.406-16.122-31.934-35.371-43.134-55.483-12.287-22.074-15.268-45.94-16.263-70.833-.523-13.103-1.11-26.372.26-39.445.998-9.49 5.842-10.618 8.245-18.116 5.553 7.78 9.21 4.905 16.03.358 4.405 12.306 2.443 25.092 1.684 37.782-.737 12.363.912 24.895 2.425 37.172 2.568 20.87 12.566 42.635 25.252 59.438 5.735 7.596 14.33 10.803 22.105 16.047 9.913 6.69 20.194 12.918 30.541 18.92 19.487 11.304 40.755 20.967 62.717 22.671 7.696.597 13.29 4.607 22.458 4.045 5.443-.332 10.925-2.196 16.356-2.047 5.443.148 10.118 1.89 15.71 1.483 23.233-1.682 47.185-9.292 70.19-13.474 24.907-4.525 49.968-9.4 73.746-18.334 10.302-3.873 18.81-8.867 24.56-18.597 4.108-6.95 3.031-19.416 10.687-23.577-5.014-6.465-3.15-7.608 1.181-13.39 2.021-2.695 8.548-9.833.633-9.704 2.405-10.417-1.618-20.491-3.334-30.682-.74-4.402-.54-11.068-3.262-14.858-1.59-2.208-4.231-2.25-5.654-3.878-1.467-.033-2.615-.645-3.438-1.833-.098-1.74.715-2.8 2.44-3.18-.398-3.446 2.15-2.208-.398-7.594-3.477-7.352-10.073-13.753-16.32-18.752-5.322-4.26-9.243-11.823-15.385-14.095-7.994-2.959-16.378-6.172-24.78-8.918-19.046-6.227-37.922-8.607-57.906-5.156-9.151 1.582-18.167 3.522-27.006 6.35-5.172 1.657-13.082 6.127-17.662 1.308-1.572-1.654-4.858-15.701-4.653-17.218.82-6.093 13.26-8.552 17.8-10.679 6.937-3.25 19.78-6.724 24.186-13.173 1.847-2.702-.241-14.186.062-14.391 2.911-1.96 15.125 25.923 18.451 27.825 4.811 2.75 18.325-.884 23.298-1.432 14.836-1.632 29.918-2.556 44.449-6.095 27.863-6.786 55.223-17.283 82.34-26.559 51.586-17.646 101.39-40.902 147.764-69.788 21.659-13.493 43.174-30.738 59.657-50.33 7.431-8.835 12.683-19.315 20.272-27.98 8.758-9.995 5.997-19.012 9.923-31.533 7.946-25.34 17.594-48.36 21.921-74.916 4.453-27.343 6.29-55.261 5.057-82.943-2.442-54.71-5.095-106.583-29.138-156.855-22.036-46.068-50.589-91.08-84.533-129.223-7.891-8.865-16.23-17.31-25.923-24.205-10.435-7.427-21.921-13.25-31.369-22.022-7.75-7.197-14.234-15.674-22.343-22.508-9.954-8.382-21.793-12.086-33.45-17.44-11.176-5.13-21.368-11.802-32.796-16.473-6.954-2.84-13.999-5.46-21.248-7.444-5.358-1.464-12.476-1.555-17.376-4.339-7.753-4.404-15.683-17.218-20.747-24.456-7.388-10.561-11.39-22.848-14.905-35.125-4.276-14.938-8.252-29.968-12.433-44.933-1.43-5.114-6.77-22.91 3.88-18.592 3.117 1.264 6.04 6.879 8.44 9.278 4.55 4.554 10.167 8.623 15.81 11.72 9.105 4.994 18.583 11.006 27.315 14.449 7.694 3.032 15.604 8.98 22.778 13.257 1.088.65 1.408 2.886 2.811 3.51 3.305 1.467 5.508-2.58 8.63-1.59 4.264 1.356 4.965 5.375 7.333 8.572 3.431 4.635 5.209 5.003 10.45 7.388 5.83 2.655 10.11 7.9 15.795 10.5 6.906 3.153 22.105.706 23.143 11.588 10.732-7.01 24.193 6.602 30.892 13.665 6.741-10.353 18.683 1.768 28.887-1.668-5.646 7.847-4.62 7.068 4.288 8.038 7.52.822 12.023 5.816 19.454 8.717 5.147 2.007 10.836 5.388 16.187 6.803 5.059 1.338 8.889-1.663 13.294-.913 3.038.516 5.925 3.145 8.815 3.861 3.663.913 8.88 2.02 13.02 3.002 5.038 1.197 10.05.098 15.073 1.049 5.863 1.11 10.922 4.602 16.874 5.734 6.636 1.264 13.538.42 20.134 2.029 6.013 1.467 9.67 3.154 15.898 3.214 9.29.09 19.659 1.321 28.832.272 4.885-.56 7.591-3.037 13.12-.614 3.687 1.615 5.897 6.604 10.923 4.318-5.305-2.127-.65-10.406 5.2-4.065 1.384-3.555 2.279-5.54 6.125-6.71-.193 3.482-.76 6.978 3.678 7.707.339-2.423.682-4.844 1.021-7.267 9.65 7.345 11.934 9.94 21.043.975-.243 2.934-1.482 6.256 1.501 8.335 1.91-3.176 3.82-6.35 5.73-9.522 3.226 10.24 18.628 6.707 26.093 4.89 2.894-.702 10.893-1.815 12.781-4.188 1.31-1.646 1.15-2.934 1.635-3.942.43-.896-4.477-3.1-.301-4.387 3.145-.973 5.596 5.925 9.29 5.65 3.293-.243 4.625-5.82 6.995-6.95.226-.108 1.835 2.248 2.95 1.732 1.73-.8 2.717-2.913 4.629-3.66 4.143-1.62 9.498-1.217 14.134-3.138 5.883-2.437 11.81-3.598 17.815-5.606 7.612-2.544 11.065-7.543 17.244-11.634 1.448-.958 2.956-.399 4.379-1.077 1.916-.913 3.925-3.057 6.206-4.067 7.155-3.173 13.266-5.331 20.053-9.709 6.052-3.904 14.042-6.788 19.43-11.474 4.482-3.9 6.901-9.593 11.412-13.562 6.476-5.697 23.21-12.843 20.496-23.973 10.832 1.653 13.483-5.36 17.459-13.095 3.782-7.357 11.533-9.562 16.602-16.272 2.19-2.9 5.718-6.922 6.928-10.231.72-1.97-1.086-4.024-.6-5.37 2.249-6.18 10.918-8.881 14.932-14.456 5.105-7.094 6.744-16.066 11.004-23.354.837-1.434 2.902-2.284 3.701-3.814.513-.982-.556-3.416.067-4.382 1.487-2.289 3.82-3.08 5.312-5.202 3.61-5.137 4.27-12.44 7.515-18.262.8-1.434 3.582-5.44 3.932-6.294 1.175-2.867.819-4.753 1.423-7.942.181-.961 2.035-6.514 2.415-7.307 1.19-2.478 2.343-2.844 4.164-5.563 4.558-6.808 7.386-17.5 7.76-25.763.16-3.505-1.007-7.13.263-10.475 1.095-2.89 4.47-4.674 5.742-7.701 3.336-7.94 2.792-19.169 3.71-27.663.998-9.26 3.96-18.384 4.778-27.574.396-4.45-1.692-8.39-1.54-12.578.177-4.8 2.669-5.697 3.628-9.69 1.095-4.559-.508-9.81.47-14.7.912-4.546 2.236-8.757 2.613-13.42.981-12.151-.403-24.86-.93-37.016-.206-4.717-.836-9.636.412-14.255 1.005-3.716 5.105-7.871 4.971-11.902-.42-12.454-10.38-1.675-16.108-2.53-6.655-.992-7.882-15.93-9.636-21.596-4.286-13.842-8.574-27.682-12.863-41.522 20.437-5.32 41.686-3.787 62.55-5.223 20.501-1.41 40.518-5.859 60.396-10.867 16.784-4.23 35.147-6.681 50.229-15.71 12.664-7.58 23.11-24.354 15.71-39.154ZM1033.334 691.8c8.176-4.25 6.113-10.12 12.117-15.577 33.597-30.529 73.024-57.185 112.54-79.196 41.631-23.192 88.343-33.012 130.897-53.562 5.722-2.764 13.16-7.085 11.023-14.786-2.496-8.998-11.064-4.857-17.172-2.735-20.352 7.078-42.013 9.741-62.656 15.959-44.063 13.27-85.329 36.153-122.657 62.935-21.717 15.58-42.52 32.805-61.065 52.153-6.83 7.121-15.936 15.43-17.713 25.69-2.2 12.698 5.308 13.993 14.686 9.12"/><path d="M1160.592 1490.025c-.198-11.222-12.42-7.14-18.707-5.633-25.56 6.134-48.41 10.83-71.03 25.038-41.982 26.364-73.791 66.418-94.37 110.743-2.74 5.897-13.773 24.59-4.93 30.155 5.83 3.67 9.366-7.018 11.544-10.985 11.084-20.193 25.924-38.07 40.847-55.616 33.133-38.957 72.96-63.682 120.614-81.734 5.844-2.215 16.177-3.81 16.032-11.968m1412.705-275.606c-8.842-17.788-23.138-39.734-42.92-47.06-10.946-4.056-17.423 2.652-14.173 13.86 2.583 8.914 11.207 13.268 17.647 19.18 16.57 15.21 26.776 37.92 32.826 59.008 6.398 22.294 7.675 46.484 7.56 69.564-.06 12.185-3.312 22.774-5.078 34.634-.693 4.662-1.876 14.939 3.482 17.85 11.873 6.45 17.359-27.233 18.57-33.71 4.469-23.89 4.038-45.89.274-69.74-3.44-21.81-8.27-43.636-18.188-63.586m-33.966-854.713c4.831-6.514 1.306-15.632 2.745-23.058 1.506-7.784 6-15.658 9.798-22.467 8.211-14.7 17.37-29.135 27.127-42.846 10.076-14.159 22.366-26.223 33.075-39.827 3.623-4.602 10.04-11.18 8.475-16.718-2.533-8.968-8.051-4.597-12.473-.839-24.17 20.55-45.452 45.89-62.645 72.503-8.16 12.631-15.868 26.464-18.568 41.447-1.394 7.739-1.406 15.813.89 23.39 1.44 4.761 5.772 16.241 11.576 8.415M1049.85 1455.907c12.111-1.12 24.292-1.52 36.431-2.143 8.985-.462 19.094.092 27.341-4.234 8.3-4.353 4.693-10.874-2.208-11.84-3.967-.556-10.662 2.123-14.914 2.308-4.604.197-9.232.055-13.838.072-13.467.05-27.978-.052-40.96 4.424-4.24 1.461-10.665 3.717-12.409 8.566-3.73 10.366 14.94 3.366 20.557 2.847m106.05-948.594c17.59-2.11 34.588-7.38 51.918-10.739 16.474-3.192 19.278-16.18-.226-15.597-6.55.196-69.69 12.173-51.692 26.336m1453.364 651.378c-11.816-2.959-5.705 10.149-2.047 14.201 6.762 7.492 10.457 13.103 12.466 23.093 1.173 5.819.074 18.95 5.01 23.398 4.863 4.379 5.2 1.47 6.063-3.934 2.434-15.236-2.43-51.984-21.492-56.758M2479.54 329.344c3.347-3.548-.242-18.976.153-23.498.482-5.478 1.779-10.115 3.413-15.256.794-2.493 4.786-11.292 2.635-14.024-2.977-3.787-7.929 2.612-9.498 5.132-5.096 8.198-6.285 21.868-5.438 31.1.305 3.342 2.326 23.333 8.735 16.546m-695.75 1301.011c.556-8.74 8.972-14.796 8.996-24.09.03-10.441-6.997-14.962-15.747-8.176-5.277 4.093-9.386 14.06-16.522 15.367-14.315 2.624-19.93-23.086-34.032-20.112-12.206 2.575-5.791 23.54-2.108 30.615 3.903 7.497 10.993 12.759 8.686 21.981-2.743 10.956-12.143 17.268-8.486 29.77 6.794 23.231 21.545 1.511 30.416-5.79 6.32-5.203 10.141-4.277 16.279.824 8.408 6.989 14.835 11.736 25.031 16.445 8.994 4.152 17.67 7.05 17.949-6.884.22-10.96-8.056-21.865-15.322-29.301-6.029-6.17-15.756-10.922-15.14-20.65m-157.576-34.656c-10.521-11.218-23.812 17.393-32.315 20.559-13.782 5.131-16.954-22.372-29.643-21.507-9.876.673-9.097 14.826-6.947 21.28 2.315 6.949 9.243 12.63 10.403 19.75 1.783 10.91-18.863 32.722-4.455 43.262 12.301 9 16.881-21.404 32.258-9 7.55 6.09 28.673 28.75 39.138 17.472 12.367-13.326-17.048-36.085-22.417-46.22-7.265-13.726 29.396-29.158 13.978-45.596m254.901-389.718c-3.016-1.33-7.893.87-11.158.731-3.506-.15-7.156-1.742-10.615-2.331-7.512-1.285-20.728.572-26.059-6.123-5.44-6.833-1.304-20.547-3.628-28.857-1.266-4.519-2.73-10.096-8.814-8.08-7.064 2.336-6.894 15.307-7.738 20.995-1.242 8.392-2.241 14.794-10.68 17.78-6.245 2.208-12.818 1.097-17.867 6.226-3.7 3.76-6.197 10.625-3.3 15.538 4.35 7.379 13.77 3.558 20.304 5.89 9.964 3.558 7.596 19.837 9.639 29.184 1.306 6.005 4.183 22.825 12.808 22.553 11.761-.365 7.195-23.994 6.542-30.892-.66-6.997-2.234-12.932 5.576-15.107 6.596-1.836 15.812 1.571 22.624 1.53 8.606-.053 18.745-2.213 23.938-9.924 2.966-4.41 4.846-16.282-1.572-19.113m432.195 290.813c18.7 1.613 7.367 24.654 19.776 33.813 11.838 8.738 13.43-15.381 13.428-22.266-.007-16.684 20.283-10.517 32.637-13.279 10.54-2.354 22.05-13.3 9.461-22.623-9.085-6.731-24.15-3.608-34.699-5.39-14.294-2.417-10.046-11.96-10.363-22.96-.113-4.03-1.504-18.403-6.71-19.536-9.539-2.074-10.107 24.698-10.75 29.79-2.72 21.556-17.527 8.425-29.29 19.229-15.376 14.127 5.37 22.26 16.51 23.222m-889.367-401.875c-29.216 23.942-62.391 20.511-89.13-5.262-11.306-10.9-18.137-21.884-17.126-37.835.908-14.352 5.122-30.211 16.615-39.905 9.679-8.17 27.935-11.101 40.19-12.243 17.179-1.598 32.547 7.752 44.429 19.436 10.348 10.176 22.442 23.142 24.038 38.248 1.68 15.893-7.378 28.019-19.016 37.56m4.442-95.278c-26.206-25.233-72.678-22.7-99.734.312-30.368 25.829-35.56 74.352-6.375 102.652 30.758 29.823 71.356 26.605 103.915 1.866 17.464-13.268 26.94-30.293 29.372-52.139 2.296-20.646-12.847-38.892-27.178-52.69m506.732-434.348c-2.941 9.555-.902 19.736-.382 29.471-8.306-5.195-13.478-14.464-22.4-18.768-4.277 11.817 17.04 45.615 30.457 34.536 12.273-10.138 3.213-38.429-7.675-45.24m43.591 58.273c-6.613 2.464-12.76 1.782-19.282 3.044-4.304.83-4.86-1.615-5.417 3.311-1.186 10.513 15.775 14.58 23.414 14.431 9.325-.18 19.545-6.45 18.643-16.657-.935-10.634-10.167-6.808-17.358-4.129m5.418-44.184c-3-2.723-9.912-13.012-14.987-11.252-3.888 1.348-1.14 5.994 0 8.319 4.272 8.72 12.652 16.138 19.349 23.132-4.959 1.76-14.512 2.894-11.99 10.524 2.32 7.01 12.83 5.933 17.865 2.983 17.252-10.114-1.604-25.87-10.237-33.705m17.417-16.551c1.181 4.814 1.815 9.36-.789 13.873l-14.367-25.766c-11.557 4.744 8.711 41.866 20.519 37.756 8.164-2.84 4.243-20.288 2.953-25.778-.69-2.938-2.332-12.283-6.407-13.232-8.014-1.866-2.784 9.597-1.91 13.147"/><path d="M1408.798 1082.537c-6.665-4.912-17.707 6.592-24.755 6.632-14.238.078-6.484-16.624-15.396-22.037-4.648-2.823-24.104.024-21.03-11.665 1.848-7.031 9.078-1.956 13.04-6.252 4.97-5.384-2.116-9.68-6.526-11.891 1.936-2.58 13.084-3.714 15.885-1.928 4.836 3.085 4.557 12.34 8.992 17.106 5.755-7.348 2.633-16.58 8.764-23.176 2.38-2.566 9.343-4.492 6.635-9.064-1.569-2.655-8.445-1.779-10.8-3.889-2.052-1.843-1.951-7.783-5.265-8.276-5.418-.806-5.286 7.468-6.913 9.86-4.893 7.18-26.398 4.704-17.485 19.272-5.938-2.963-22.136-5.304-18.993 5.04.804 2.644 3.866 4.262 4.626 7.277.66 2.613-.791 6.337-.929 8.96-.257 4.97-.654 10.786 3.026 14.786 5.056 5.498 11.815 1.498 17.24 3.889 7.391 3.256 4.727 10.027 8.626 15.948 5.105 7.745 12.953 5.366 20.181 3.022 8.619-2.795 9.981-3.048 16.287 4.13 2.883-3.726 10.783-13.326 4.79-17.744"/><path d="M1420.386 1052.293c-6.953-1.286-4.213-22.006-12.675-13.002-3.172 3.373.077 9.957-3.463 13.572-2.377 2.43-5.394.996-7.772 2.59-2.138 1.43-2.68 4.168-3.939 6.26 4.474 2.013 7.93 2.274 12.706 1.396 0 3.598-2.39 14.187 3.748 13.413 5.71-.72 4.098-11.35 7.003-14.653 2.951-3.359 14.844-1.8 15.95-6.521 1.369-5.846-8.518-2.493-11.558-3.055"/></g><circle cx="1554" cy="988" r="472" fill="#FDEF59" fill-opacity=".9" style="mix-blend-mode:overlay"/></g></svg>